<svg xmlns="http://www.w3.org/2000/svg" version="1.1" xmlns:xlink="http://www.w3.org/1999/xlink" xmlns:svgjs="http://svgjs.dev/svgjs" width="2000" height="252" viewBox="0 0 2000 252"><g transform="matrix(1,0,0,1,-1.2121212121212466,-0.35854728065054076)"><svg viewBox="0 0 396 50" data-background-color="#ffffff" preserveAspectRatio="xMidYMid meet" height="252" width="2000" xmlns="http://www.w3.org/2000/svg" xmlns:xlink="http://www.w3.org/1999/xlink"><g id="tight-bounds" transform="matrix(1,0,0,1,0.2400000000000091,0.07114033346240944)"><svg viewBox="0 0 395.52 49.85771933307516" height="49.85771933307516" width="395.52"><g><svg viewBox="0 0 462.6899300596697 58.32490056420709" height="49.85771933307516" width="395.52"><g><svg viewBox="0 0 395.52 58.32490056420709" height="58.32490056420709" width="395.52"><g id="textblocktransform"><svg viewBox="0 0 395.52 58.32490056420709" height="58.32490056420709" width="395.52" id="textblock"><g><svg viewBox="0 0 395.52 58.32490056420709" height="58.32490056420709" width="395.52"><g transform="matrix(1,0,0,1,0,0)"><svg width="395.52" viewBox="0.3 -34.45 241.310605975214 35.050000000000004" height="58.32490056420709" data-palette-color="#323232"><g class="wordmark-text-0" data-fill-palette-color="primary" id="text-0"><path d="M11.43-28.05L0.3-28.05 0.3-31.4 24.75-31.4 24.75-28.05 13.58-28.05 14.45-28.95 14.45 0 10.55 0 10.55-28.95 11.43-28.05ZM33.97 0L30.07 0 30.07-23.95 33.97-23.95 33.97 0ZM33.97-10.8L32.77-10.8Q32.77-15.35 33.65-18.36 34.52-21.38 36.21-22.86 37.9-24.35 40.32-24.35L40.32-24.35Q41.12-24.35 41.78-24.24 42.45-24.13 43.12-23.9L43.12-23.9 42.87-20.05Q42.17-20.28 41.35-20.44 40.52-20.6 39.87-20.6L39.87-20.6Q37.75-20.6 36.45-19.39 35.15-18.18 34.56-15.98 33.97-13.78 33.97-10.8L33.97-10.8ZM66.34 0L62.95 0 62.45-5.25 62.45-15.5Q62.45-18.73 61.07-20.14 59.7-21.55 56.95-21.55L56.95-21.55Q55.39-21.55 54.13-21.1 52.87-20.65 52.13-19.71 51.39-18.78 51.39-17.3L51.39-17.3 47.05-17.3Q47.05-19.9 48.32-21.49 49.59-23.08 51.83-23.79 54.07-24.5 56.95-24.5L56.95-24.5Q59.7-24.5 61.82-23.58 63.95-22.65 65.14-20.64 66.34-18.63 66.34-15.4L66.34-15.4 66.34 0ZM54.8 0.6L54.8 0.6Q51.84 0.6 49.92-0.45 47.99-1.5 47.05-3.18 46.09-4.85 46.09-6.7L46.09-6.7Q46.09-9.13 47.31-10.65 48.52-12.18 50.62-12.89 52.72-13.6 55.34-13.6L55.34-13.6Q57.22-13.6 59.11-13.23 61-12.85 62.8-12.2L62.8-12.2 62.8-9.75Q61.3-10.35 59.41-10.7 57.52-11.05 55.95-11.05L55.95-11.05Q53.55-11.05 51.89-10.06 50.24-9.08 50.24-6.7L50.24-6.7Q50.24-4.95 51.51-3.7 52.77-2.45 55.55-2.45L55.55-2.45Q57.49-2.45 59.06-3.36 60.62-4.28 61.53-5.65 62.45-7.03 62.45-8.4L62.45-8.4 63.39-8.4Q63.39-6 62.36-3.95 61.32-1.9 59.39-0.65 57.47 0.6 54.8 0.6ZM96.52 0L92.67 0 92.67-14.05Q92.67-17.48 91.03-19.26 89.39-21.05 86.57-21.05L86.57-21.05Q84.42-21.05 82.84-19.88 81.27-18.7 80.42-16.51 79.57-14.33 79.57-11.3L79.57-11.3 78.07-11.3Q78.07-15.48 79.17-18.43 80.27-21.38 82.38-22.94 84.49-24.5 87.52-24.5L87.52-24.5Q90.34-24.5 92.36-23.24 94.37-21.98 95.44-19.63 96.52-17.28 96.52-14.05L96.52-14.05 96.52 0ZM79.57 0L75.67 0 75.67-23.9 79.02-23.9 79.57-18.4 79.57 0ZM114.44 0.6L114.44 0.6Q110.97 0.6 108.64-0.39 106.32-1.38 105.12-3.11 103.92-4.85 103.84-7.1L103.84-7.1 107.59-7.1Q107.72-4.83 109.43-3.69 111.14-2.55 114.09-2.55L114.09-2.55Q115.64-2.55 116.94-3.05 118.24-3.55 119.02-4.42 119.79-5.3 119.79-6.4L119.79-6.4Q119.79-7.8 118.77-8.6 117.74-9.4 115.49-10L115.49-10 110.84-11.5Q107.82-12.45 106.2-14.11 104.59-15.78 104.59-18.1L104.59-18.1Q104.59-21 107.14-22.75 109.69-24.5 113.84-24.5L113.84-24.5Q118.24-24.5 120.67-22.7 123.09-20.9 123.19-18.2L123.19-18.2 119.34-18.2Q119.12-19.78 117.74-20.59 116.37-21.4 113.84-21.4L113.84-21.4Q111.42-21.4 110.05-20.31 108.69-19.23 108.69-17.9L108.69-17.9Q108.69-15.43 112.94-14.25L112.94-14.25 117.69-12.65Q120.77-11.73 122.4-10.23 124.04-8.72 124.04-6.4L124.04-6.4Q124.04-4.6 122.87-3 121.69-1.4 119.54-0.4 117.39 0.6 114.44 0.6ZM140.51 0.6L140.51 0.6Q137.64 0.6 135.15-0.95 132.66-2.5 131.14-5.33 129.61-8.15 129.61-12L129.61-12Q129.61-15.95 131.14-18.75 132.66-21.55 135.15-23.03 137.64-24.5 140.51-24.5L140.51-24.5Q142.54-24.5 144.15-23.89 145.76-23.28 146.96-22.2 148.16-21.13 148.95-19.76 149.74-18.4 150.11-16.9L150.11-16.9 146.11-16.55Q145.49-18.63 144.03-19.84 142.56-21.05 140.46-21.05L140.46-21.05Q138.69-21.05 137.13-20.04 135.56-19.03 134.59-17.01 133.61-15 133.61-12L133.61-12Q133.61-9.22 134.5-7.19 135.39-5.15 136.94-4.03 138.49-2.9 140.46-2.9L140.46-2.9Q143.24-2.9 144.68-4.26 146.11-5.63 146.11-8.05L146.11-8.05 150.11-8.05Q150.11-5.55 148.94-3.6 147.76-1.65 145.6-0.53 143.44 0.6 140.51 0.6ZM166.21 0.6L166.21 0.6Q163.11 0.6 160.67-0.99 158.24-2.58 156.82-5.4 155.41-8.22 155.41-11.9L155.41-11.9Q155.41-15.83 156.81-18.65 158.21-21.48 160.65-22.99 163.09-24.5 166.21-24.5L166.21-24.5Q168.94-24.5 170.86-23.4 172.79-22.3 173.96-20.43 175.14-18.55 175.6-16.19 176.06-13.83 175.86-11.3L175.86-11.3 158.56-11.3 158.56-13.7 173.29-13.7 172.14-12.95Q172.21-14.43 171.97-15.9 171.74-17.38 171.09-18.61 170.44-19.85 169.26-20.6 168.09-21.35 166.26-21.35L166.26-21.35Q163.96-21.35 162.41-20.18 160.86-19 160.09-17.09 159.31-15.18 159.31-12.95L159.31-12.95 159.31-11.35Q159.31-8.85 160.07-6.88 160.84-4.9 162.36-3.75 163.89-2.6 166.21-2.6L166.21-2.6Q168.54-2.6 170.04-3.73 171.54-4.85 171.86-7.05L171.86-7.05 175.91-7.05Q175.54-4.67 174.21-2.96 172.89-1.25 170.84-0.33 168.79 0.6 166.21 0.6ZM185.78-29.55L185.78-29.55Q184.58-29.55 183.88-30.24 183.18-30.93 183.18-32.05L183.18-32.05Q183.18-33.15 183.88-33.8 184.58-34.45 185.78-34.45L185.78-34.45Q186.98-34.45 187.68-33.8 188.38-33.15 188.38-32.05L188.38-32.05Q188.38-30.93 187.68-30.24 186.98-29.55 185.78-29.55ZM187.73 0L183.83 0 183.83-23.95 187.73-23.95 187.73 0ZM203.88 0L194.33-23.9 198.78-23.9 206.28-3.35 205.73-3.35 213.23-23.9 217.68-23.9 208.13 0 203.88 0ZM231.9 0.6L231.9 0.6Q228.8 0.6 226.37-0.99 223.93-2.58 222.52-5.4 221.1-8.22 221.1-11.9L221.1-11.9Q221.1-15.83 222.5-18.65 223.9-21.48 226.34-22.99 228.78-24.5 231.9-24.5L231.9-24.5Q234.63-24.5 236.55-23.4 238.48-22.3 239.65-20.43 240.83-18.55 241.29-16.19 241.75-13.83 241.55-11.3L241.55-11.3 224.25-11.3 224.25-13.7 238.98-13.7 237.83-12.95Q237.9-14.43 237.67-15.9 237.43-17.38 236.78-18.61 236.13-19.85 234.95-20.6 233.78-21.35 231.95-21.35L231.95-21.35Q229.65-21.35 228.1-20.18 226.55-19 225.78-17.09 225-15.18 225-12.95L225-12.95 225-11.35Q225-8.85 225.77-6.88 226.53-4.9 228.05-3.75 229.58-2.6 231.9-2.6L231.9-2.6Q234.23-2.6 235.73-3.73 237.23-4.85 237.55-7.05L237.55-7.05 241.6-7.05Q241.23-4.67 239.9-2.96 238.58-1.25 236.53-0.33 234.48 0.6 231.9 0.6Z" fill="#000000" data-fill-palette-color="primary"></path></g></svg></g></svg></g></svg></g></svg></g><g transform="matrix(1,0,0,1,409.2891092255957,7.802121948473978)"><svg viewBox="0 0 53.40082083407392 42.720656667259135" height="42.720656667259135" width="53.40082083407392"><g><svg xmlns="http://www.w3.org/2000/svg" xmlns:xlink="http://www.w3.org/1999/xlink" version="1.1" x="0" y="0" viewBox="5 14 90 72" enable-background="new 0 0 100 100" xml:space="preserve" height="42.720656667259135" width="53.40082083407392" class="icon-icon-0" data-fill-palette-color="accent" id="icon-0"><g fill="#000000" data-fill-palette-color="accent"><polygon points="59,14 59,50 59,86 77,86 77,50 95,50  " fill="#000000" data-fill-palette-color="accent"></polygon><polygon points="23,14 23,50 5,50 41,86 41,50 41,14  " fill="#000000" data-fill-palette-color="accent"></polygon></g></svg></g></svg></g></svg></g><defs></defs></svg><rect width="395.52" height="49.85771933307516" fill="none" stroke="none" visibility="hidden"></rect></g></svg></g></svg>