<svg width="16" height="16" viewBox="0 0 16 16" fill="none" xmlns="http://www.w3.org/2000/svg">
<path d="M8.5376 7.22671L14.3932 7.29405C14.8252 7.29902 15.1714 7.65328 15.1664 8.08532C15.1615 8.51736 14.8072 8.86357 14.3752 8.8586L8.51961 8.79126L8.45226 14.6468C8.4473 15.0789 8.09303 15.4251 7.66099 15.4201C7.22895 15.4151 6.88275 15.0609 6.88771 14.6288L6.95505 8.77327L1.0995 8.70593C0.667465 8.70096 0.321256 8.34669 0.326225 7.91465C0.331193 7.48262 0.685458 7.13641 1.1175 7.14138L6.97305 7.20872L7.04039 1.35317C7.04536 0.921127 7.39962 0.574918 7.83166 0.579887C8.2637 0.584855 8.60991 0.93912 8.60494 1.37116L8.5376 7.22671Z" fill="white"/>
</svg>
