<svg width="19" height="19" viewBox="0 0 19 19" fill="none" xmlns="http://www.w3.org/2000/svg">
<path d="M7.56738 0.3125H8.12598H10.876H11.4346L11.5635 0.871094L11.9502 2.89062C12.5804 3.14844 13.1676 3.50651 13.7119 3.96484L15.7314 3.27734L16.29 3.10547L16.5479 3.57812L17.9229 5.98438L18.1807 6.45703L17.7939 6.84375L16.2471 8.17578C16.333 8.69141 16.376 9.04948 16.376 9.25C16.376 9.45052 16.333 9.80859 16.2471 10.3242L17.7939 11.6562L18.1807 12.043L17.9229 12.5156L16.5479 14.9219L16.29 15.3945L15.7314 15.2227L13.7119 14.5352C13.1676 14.9935 12.5804 15.3516 11.9502 15.6094L11.5635 17.6289L11.4346 18.1875H10.876H8.12598H7.56738L7.43848 17.6289L7.05176 15.6094C6.42155 15.3516 5.83431 14.9935 5.29004 14.5352L3.27051 15.2227L2.71191 15.3945L2.4541 14.9219L1.0791 12.5156L0.821289 12.043L1.20801 11.6562L2.75488 10.3242C2.66895 9.80859 2.62598 9.45052 2.62598 9.25C2.62598 9.04948 2.66895 8.69141 2.75488 8.17578L1.20801 6.84375L0.821289 6.45703L1.0791 5.98438L2.4541 3.57812L2.71191 3.10547L3.27051 3.27734L5.29004 3.96484C5.83431 3.50651 6.42155 3.14844 7.05176 2.89062L7.43848 0.871094L7.56738 0.3125ZM8.68457 1.6875L8.34082 3.49219L8.25488 3.87891L7.86816 4.00781C7.09473 4.26562 6.40723 4.66667 5.80566 5.21094L5.46191 5.46875L5.11816 5.38281L3.35645 4.78125L2.54004 6.15625L3.91504 7.35938L4.25879 7.61719L4.12988 8.04688C4.04395 8.41927 4.00098 8.82031 4.00098 9.25C4.00098 9.67969 4.04395 10.0807 4.12988 10.4531L4.25879 10.8828L3.91504 11.1406L2.54004 12.3438L3.35645 13.7188L5.11816 13.1172L5.46191 13.0312L5.80566 13.2891C6.40723 13.8333 7.09473 14.2344 7.86816 14.4922L8.25488 14.6211L8.34082 15.0078L8.68457 16.8125H10.3174L10.6611 15.0078L10.7471 14.6211L11.1338 14.4922C11.9072 14.2344 12.5947 13.8333 13.1963 13.2891L13.54 13.0312L13.8838 13.1172L15.6455 13.7188L16.4619 12.3438L15.0869 11.1406L14.7861 10.8828L14.8721 10.4531C14.958 10.0807 15.001 9.67969 15.001 9.25C15.001 8.82031 14.958 8.41927 14.8721 8.04688L14.7432 7.61719L15.0869 7.35938L16.4619 6.15625L15.6455 4.78125L13.8838 5.38281L13.54 5.46875L13.1963 5.21094C12.5947 4.66667 11.9072 4.26562 11.1338 4.00781L10.7471 3.87891L10.6611 3.49219L10.3174 1.6875H8.68457ZM7.05176 6.84375C7.73926 6.15625 8.55566 5.8125 9.50098 5.8125C10.4463 5.8125 11.2484 6.15625 11.9072 6.84375C12.5947 7.5026 12.9385 8.30469 12.9385 9.25C12.9385 10.1953 12.5947 11.0117 11.9072 11.6992C11.2484 12.3581 10.4463 12.6875 9.50098 12.6875C8.55566 12.6875 7.73926 12.3581 7.05176 11.6992C6.3929 11.0117 6.06348 10.1953 6.06348 9.25C6.06348 8.30469 6.3929 7.5026 7.05176 6.84375ZM10.9619 7.78906C10.5609 7.38802 10.0739 7.1875 9.50098 7.1875C8.92806 7.1875 8.44108 7.38802 8.04004 7.78906C7.639 8.1901 7.43848 8.67708 7.43848 9.25C7.43848 9.82292 7.639 10.3099 8.04004 10.7109C8.44108 11.112 8.92806 11.3125 9.50098 11.3125C10.0739 11.3125 10.5609 11.112 10.9619 10.7109C11.363 10.3099 11.5635 9.82292 11.5635 9.25C11.5635 8.67708 11.363 8.1901 10.9619 7.78906Z" fill="#414273"/>
</svg>
