<svg width="60" height="60" viewBox="0 0 60 60" fill="none" xmlns="http://www.w3.org/2000/svg">
<path fill-rule="evenodd" clip-rule="evenodd" d="M30 60C46.5685 60 60 46.5685 60 30C60 13.4315 46.5685 0 30 0C13.4315 0 0 13.4315 0 30C0 46.5685 13.4315 60 30 60Z" fill="#414273"/>
<path fill-rule="evenodd" clip-rule="evenodd" d="M41.0588 22.5882H19.6471V20.1176C19.6471 19.6565 20.0094 19.2941 20.4706 19.2941H22.9412V20.1176C22.9412 20.5788 23.3035 20.9412 23.7647 20.9412C24.2259 20.9412 24.5882 20.5788 24.5882 20.1176V19.2941H36.1177V20.1176C36.1177 20.5788 36.48 20.9412 36.9412 20.9412C37.4024 20.9412 37.7647 20.5788 37.7647 20.1176V19.2941H40.2353C40.6965 19.2941 41.0588 19.6565 41.0588 20.1176V22.5882ZM40.2353 17.6471H37.7647V16.8235C37.7647 16.3624 37.4024 16 36.9412 16C36.48 16 36.1177 16.3624 36.1177 16.8235V17.6471H24.5882V16.8235C24.5882 16.3624 24.2259 16 23.7647 16C23.3035 16 22.9412 16.3624 22.9412 16.8235V17.6471H20.4706C19.1035 17.6471 18 18.7506 18 20.1176V44H42.7059V20.1176C42.7059 18.7506 41.6024 17.6471 40.2353 17.6471Z" fill="#A0A0B9"/>
<path fill-rule="evenodd" clip-rule="evenodd" d="M41.0588 22.5882H19.6471V20.1176C19.6471 19.6565 20.0094 19.2941 20.4706 19.2941H22.9412V20.1176C22.9412 20.5788 23.3035 20.9412 23.7647 20.9412C24.2259 20.9412 24.5882 20.5788 24.5882 20.1176V19.2941H36.1177V20.1176C36.1177 20.5788 36.48 20.9412 36.9412 20.9412C37.4024 20.9412 37.7647 20.5788 37.7647 20.1176V19.2941H40.2353C40.6965 19.2941 41.0588 19.6565 41.0588 20.1176V22.5882ZM34.0918 34.9741C34.0918 36.9341 32.56 38.3506 30.32 38.3506C28.4424 38.3506 27.0918 37.5765 26.1859 36.4729L27.5035 35.2541C28.2776 36.16 29.1506 36.6541 30.3529 36.6541C31.4071 36.6541 32.2141 36.0282 32.2141 35.0564V35.0235C32.2141 33.9694 31.2424 33.3765 29.7271 33.3765H28.8541L28.5412 32.2071L31.4565 29.16H26.7953V27.5294H33.9271V28.9294L30.9129 31.96C32.5435 32.1576 34.0918 32.9812 34.0918 34.9412V34.9741ZM40.2353 17.6471H37.7647V16.8235C37.7647 16.3624 37.4024 16 36.9412 16C36.48 16 36.1177 16.3624 36.1177 16.8235V17.6471H24.5882V16.8235C24.5882 16.3624 24.2259 16 23.7647 16C23.3035 16 22.9412 16.3624 22.9412 16.8235V17.6471H20.4706C19.1035 17.6471 18 18.7506 18 20.1176V44H42.7059V20.1176C42.7059 18.7506 41.6024 17.6471 40.2353 17.6471Z" fill="white"/>
</svg>
