<svg width="60" height="60" viewBox="0 0 60 60" fill="none" xmlns="http://www.w3.org/2000/svg">
<path fill-rule="evenodd" clip-rule="evenodd" d="M30 60C46.5685 60 60 46.5685 60 30C60 13.4315 46.5685 0 30 0C13.4315 0 0 13.4315 0 30C0 46.5685 13.4315 60 30 60Z" fill="white"/>
<path fill-rule="evenodd" clip-rule="evenodd" d="M24.6438 34.2688C23.875 35.0377 23.875 36.2752 23.875 38.75V42.25C23.875 44.7248 23.875 45.9623 24.6438 46.7312C25.4127 47.5 26.6502 47.5 29.125 47.5H30.875C33.3498 47.5 34.5873 47.5 35.3562 46.7312C36.125 45.9623 36.125 44.7248 36.125 42.25V38.75C36.125 36.2752 36.125 35.0377 35.3562 34.2688C34.5873 33.5 33.3498 33.5 30.875 33.5H29.125C26.6502 33.5 25.4127 33.5 24.6438 34.2688ZM26.9375 40.5C26.9375 39.7751 27.5252 39.1875 28.25 39.1875H31.75C32.4748 39.1875 33.0625 39.7751 33.0625 40.5C33.0625 41.2249 32.4748 41.8125 31.75 41.8125H28.25C27.5252 41.8125 26.9375 41.2249 26.9375 40.5Z" fill="#414273"/>
<path opacity="0.5" d="M47.5 30.6176C47.5 35.6572 43.6829 39.8156 38.75 40.4235L36.125 40.4351V38.75C36.125 36.2752 36.125 35.0377 35.3562 34.2688C34.5873 33.5 33.3498 33.5 30.875 33.5H29.125C26.6502 33.5 25.4127 33.5 24.6438 34.2688C23.875 35.0377 23.875 36.2752 23.875 38.75V40.4885L21.25 40.5H20C15.8579 40.5 12.5 37.1817 12.5 33.0882C12.5 28.9948 15.8579 25.6765 20 25.6765C20.4972 25.6765 20.9831 25.7243 21.4533 25.8155C21.0524 24.7461 20.8333 23.5895 20.8333 22.3824C20.8333 16.9245 25.3105 12.5 30.8334 12.5C35.9778 12.5 40.2149 16.339 40.7714 21.2762C44.6877 22.6154 47.5 26.292 47.5 30.6176Z" fill="#414273"/>
</svg>
