<svg width="60" height="60" viewBox="0 0 60 60" fill="none" xmlns="http://www.w3.org/2000/svg">
<path fill-rule="evenodd" clip-rule="evenodd" d="M30 60C46.5685 60 60 46.5685 60 30C60 13.4315 46.5685 0 30 0C13.4315 0 0 13.4315 0 30C0 46.5685 13.4315 60 30 60Z" fill="#414273"/>
<path d="M42.2171 27.2C42.7012 27.2 43.1357 26.8963 43.3111 26.435C43.4866 25.9738 43.3672 25.4498 43.0103 25.1154L33.619 16.3154C33.2758 15.9939 32.7793 15.91 32.3531 16.1016C31.927 16.2932 31.6519 16.7241 31.6519 17.2V42.8C31.6519 43.4627 32.1775 44 32.8258 44C33.4741 44 33.9997 43.4627 33.9997 42.8V27.2H42.2171Z" fill="white"/>
<path opacity="0.5" d="M17.174 32.8H25.3913V17.2C25.3913 16.5373 25.9169 16 26.5652 16C27.2135 16 27.7391 16.5373 27.7391 17.2V42.8C27.7391 43.2758 27.4641 43.7067 27.0379 43.8984C26.6119 44.0901 26.1152 44.0061 25.772 43.6846L16.3807 34.8846C16.0239 34.5502 15.9044 34.0262 16.0799 33.5649C16.2554 33.1038 16.6899 32.8 17.174 32.8Z" fill="white"/>
</svg>
