<svg width="155" height="63" viewBox="0 0 155 63" fill="none" xmlns="http://www.w3.org/2000/svg">
<path opacity="0.35" d="M210.027 28.4305C197.356 21.7523 185.447 14.9991 171.426 10.9788C152.153 5.45215 138.987 3.07036 119.574 9.17447C97.4796 16.1219 104.677 20.6472 85.5877 29.8503C69.0907 37.8036 46.4804 31.5235 32.3747 45.054C20.5307 56.4151 18.1636 76.1126 18.65 91.0792C20.0214 133.281 24.0581 100.429 30.6 138.11M51.3646 107.762C53.238 92.9525 54.652 78.0779 56.9847 63.3339C58.0843 56.3836 61.4797 22.8665 72.5433 14.3508C75.3724 12.1733 79.9669 13.1872 83.251 14.5875C96.7775 20.3551 94.6706 28.808 109.576 32.6308C115.127 34.0542 121.233 33.7202 126.762 32.2166C134.528 30.105 172.081 9.84345 177.076 7.96174C185.848 4.65684 194.975 0.985823 204.348 1.09937C251.305 1.6682 201.984 13.01 241.973 26.8332M101.945 82.2054C97.0434 76.0201 92.5086 69.5485 87.5695 63.3931C81.4046 55.7101 75.3499 47.9145 68.6684 40.6763C64.5523 36.2171 43.6384 8.72931 29.0323 15.9481C14.5053 23.1278 9.85677 62.6434 8.44523 70.64C6.33056 82.6198 4.83718 94.7109 3.62383 106.815C-4.6253 189.108 5.64703 94.3497 2.91393 146.096" stroke="#414273" stroke-width="0.5" stroke-linecap="round"/>
</svg>
