<svg width="14" height="14" viewBox="0 0 14 14" fill="none" xmlns="http://www.w3.org/2000/svg">
<path fill-rule="evenodd" clip-rule="evenodd" d="M7.08431 5.67005L12.0622 0.692207C12.4294 0.324928 13.0249 0.324928 13.3922 0.692207C13.7595 1.05949 13.7595 1.65496 13.3922 2.02224L8.41434 7.00008L13.3922 11.9779C13.7595 12.3452 13.7595 12.9407 13.3922 13.308C13.0249 13.6752 12.4294 13.6752 12.0622 13.308L7.08431 8.33012L2.10647 13.308C1.73919 13.6752 1.14371 13.6752 0.776436 13.308C0.409157 12.9407 0.409157 12.3452 0.776436 11.9779L5.75428 7.00008L0.776436 2.02224C0.409157 1.65496 0.409157 1.05949 0.776436 0.692207C1.14371 0.324928 1.73919 0.324928 2.10647 0.692207L7.08431 5.67005Z" fill="#888888"/>
<mask id="mask0_26_4679" style="mask-type:luminance" maskUnits="userSpaceOnUse" x="0" y="0" width="14" height="14">
<path fill-rule="evenodd" clip-rule="evenodd" d="M7.08431 5.67005L12.0622 0.692207C12.4294 0.324928 13.0249 0.324928 13.3922 0.692207C13.7595 1.05949 13.7595 1.65496 13.3922 2.02224L8.41434 7.00008L13.3922 11.9779C13.7595 12.3452 13.7595 12.9407 13.3922 13.308C13.0249 13.6752 12.4294 13.6752 12.0622 13.308L7.08431 8.33012L2.10647 13.308C1.73919 13.6752 1.14371 13.6752 0.776436 13.308C0.409157 12.9407 0.409157 12.3452 0.776436 11.9779L5.75428 7.00008L0.776436 2.02224C0.409157 1.65496 0.409157 1.05949 0.776436 0.692207C1.14371 0.324928 1.73919 0.324928 2.10647 0.692207L7.08431 5.67005Z" fill="white"/>
</mask>
<g mask="url(#mask0_26_4679)">
</g>
</svg>
