<svg id="visual" viewBox="0 0 1800 200" width="1800" height="200" xmlns="http://www.w3.org/2000/svg" xmlns:xlink="http://www.w3.org/1999/xlink" version="1.1"><path d="M0 74L21.5 78.7C43 83.3 86 92.7 128.8 100.8C171.7 109 214.3 116 257.2 119.5C300 123 343 123 385.8 119.8C428.7 116.7 471.3 110.3 514.2 110.5C557 110.7 600 117.3 642.8 118.5C685.7 119.7 728.3 115.3 771.2 115.3C814 115.3 857 119.7 900 122.7C943 125.7 986 127.3 1028.8 121.7C1071.7 116 1114.3 103 1157.2 98.5C1200 94 1243 98 1285.8 99.5C1328.7 101 1371.3 100 1414.2 103.2C1457 106.3 1500 113.7 1542.8 114.5C1585.7 115.3 1628.3 109.7 1671.2 105.7C1714 101.7 1757 99.3 1778.5 98.2L1800 97L1800 0L1778.5 0C1757 0 1714 0 1671.2 0C1628.3 0 1585.7 0 1542.8 0C1500 0 1457 0 1414.2 0C1371.3 0 1328.7 0 1285.8 0C1243 0 1200 0 1157.2 0C1114.3 0 1071.7 0 1028.8 0C986 0 943 0 900 0C857 0 814 0 771.2 0C728.3 0 685.7 0 642.8 0C600 0 557 0 514.2 0C471.3 0 428.7 0 385.8 0C343 0 300 0 257.2 0C214.3 0 171.7 0 128.8 0C86 0 43 0 21.5 0L0 0Z" fill="#0066ff"></path><path d="M0 49L21.5 52.3C43 55.7 86 62.3 128.8 66.2C171.7 70 214.3 71 257.2 68.7C300 66.3 343 60.7 385.8 58.7C428.7 56.7 471.3 58.3 514.2 56C557 53.7 600 47.3 642.8 45.8C685.7 44.3 728.3 47.7 771.2 48.2C814 48.7 857 46.3 900 45.3C943 44.3 986 44.7 1028.8 50.3C1071.7 56 1114.3 67 1157.2 73.3C1200 79.7 1243 81.3 1285.8 78.3C1328.7 75.3 1371.3 67.7 1414.2 70C1457 72.3 1500 84.7 1542.8 87.5C1585.7 90.3 1628.3 83.7 1671.2 74.7C1714 65.7 1757 54.3 1778.5 48.7L1800 43L1800 0L1778.5 0C1757 0 1714 0 1671.2 0C1628.3 0 1585.7 0 1542.8 0C1500 0 1457 0 1414.2 0C1371.3 0 1328.7 0 1285.8 0C1243 0 1200 0 1157.2 0C1114.3 0 1071.7 0 1028.8 0C986 0 943 0 900 0C857 0 814 0 771.2 0C728.3 0 685.7 0 642.8 0C600 0 557 0 514.2 0C471.3 0 428.7 0 385.8 0C343 0 300 0 257.2 0C214.3 0 171.7 0 128.8 0C86 0 43 0 21.5 0L0 0Z" fill="#a4a7f8"></path><path d="M0 49L21.5 46.2C43 43.3 86 37.7 128.8 36C171.7 34.3 214.3 36.7 257.2 34.2C300 31.7 343 24.3 385.8 22C428.7 19.7 471.3 22.3 514.2 29.8C557 37.3 600 49.7 642.8 53.2C685.7 56.7 728.3 51.3 771.2 43.5C814 35.7 857 25.3 900 21.5C943 17.7 986 20.3 1028.8 22.2C1071.7 24 1114.3 25 1157.2 30C1200 35 1243 44 1285.8 47C1328.7 50 1371.3 47 1414.2 42.8C1457 38.7 1500 33.3 1542.8 31.8C1585.7 30.3 1628.3 32.7 1671.2 31.5C1714 30.3 1757 25.7 1778.5 23.3L1800 21L1800 0L1778.5 0C1757 0 1714 0 1671.2 0C1628.3 0 1585.7 0 1542.8 0C1500 0 1457 0 1414.2 0C1371.3 0 1328.7 0 1285.8 0C1243 0 1200 0 1157.2 0C1114.3 0 1071.7 0 1028.8 0C986 0 943 0 900 0C857 0 814 0 771.2 0C728.3 0 685.7 0 642.8 0C600 0 557 0 514.2 0C471.3 0 428.7 0 385.8 0C343 0 300 0 257.2 0C214.3 0 171.7 0 128.8 0C86 0 43 0 21.5 0L0 0Z" fill="#eeeeee"></path></svg>