<svg id="visual" viewBox="0 0 200 2400" width="200" height="2400" xmlns="http://www.w3.org/2000/svg" xmlns:xlink="http://www.w3.org/1999/xlink" version="1.1"><path d="M33 0L37.5 26.7C42 53.3 51 106.7 58.7 160C66.3 213.3 72.7 266.7 72.8 320C73 373.3 67 426.7 58.2 480C49.3 533.3 37.7 586.7 30.2 640C22.7 693.3 19.3 746.7 25.7 800C32 853.3 48 906.7 49.5 960C51 1013.3 38 1066.7 33.5 1120C29 1173.3 33 1226.7 32.7 1280C32.3 1333.3 27.7 1386.7 27.3 1440C27 1493.3 31 1546.7 38.8 1600C46.7 1653.3 58.3 1706.7 64.2 1760C70 1813.3 70 1866.7 66.8 1920C63.7 1973.3 57.3 2026.7 49.8 2080C42.3 2133.3 33.7 2186.7 32.3 2240C31 2293.3 37 2346.7 40 2373.3L43 2400L0 2400L0 2373.3C0 2346.7 0 2293.3 0 2240C0 2186.7 0 2133.3 0 2080C0 2026.7 0 1973.3 0 1920C0 1866.7 0 1813.3 0 1760C0 1706.7 0 1653.3 0 1600C0 1546.7 0 1493.3 0 1440C0 1386.7 0 1333.3 0 1280C0 1226.7 0 1173.3 0 1120C0 1066.7 0 1013.3 0 960C0 906.7 0 853.3 0 800C0 746.7 0 693.3 0 640C0 586.7 0 533.3 0 480C0 426.7 0 373.3 0 320C0 266.7 0 213.3 0 160C0 106.7 0 53.3 0 26.7L0 0Z" fill="#0066FF" stroke-linecap="round" stroke-linejoin="miter"></path></svg>