<svg id="visual" viewBox="0 0 200 2400" width="200" height="2400" xmlns="http://www.w3.org/2000/svg" xmlns:xlink="http://www.w3.org/1999/xlink" version="1.1"><path d="M134 2400L138.3 2373.3C142.7 2346.7 151.3 2293.3 150.3 2240C149.3 2186.7 138.7 2133.3 139.8 2080C141 2026.7 154 1973.3 155.5 1920C157 1866.7 147 1813.3 140.3 1760C133.7 1706.7 130.3 1653.3 136.3 1600C142.3 1546.7 157.7 1493.3 164 1440C170.3 1386.7 167.7 1333.3 159.3 1280C151 1226.7 137 1173.3 129.5 1120C122 1066.7 121 1013.3 126.2 960C131.3 906.7 142.7 853.3 151.5 800C160.3 746.7 166.7 693.3 165.8 640C165 586.7 157 533.3 147.7 480C138.3 426.7 127.7 373.3 122.5 320C117.3 266.7 117.7 213.3 122.2 160C126.7 106.7 135.3 53.3 139.7 26.7L144 0L200 0L200 26.7C200 53.3 200 106.7 200 160C200 213.3 200 266.7 200 320C200 373.3 200 426.7 200 480C200 533.3 200 586.7 200 640C200 693.3 200 746.7 200 800C200 853.3 200 906.7 200 960C200 1013.3 200 1066.7 200 1120C200 1173.3 200 1226.7 200 1280C200 1333.3 200 1386.7 200 1440C200 1493.3 200 1546.7 200 1600C200 1653.3 200 1706.7 200 1760C200 1813.3 200 1866.7 200 1920C200 1973.3 200 2026.7 200 2080C200 2133.3 200 2186.7 200 2240C200 2293.3 200 2346.7 200 2373.3L200 2400Z" fill="#0066FF" stroke-linecap="round" stroke-linejoin="miter"></path></svg>