<svg id="visual" viewBox="0 0 1800 200" width="1800" height="200" xmlns="http://www.w3.org/2000/svg" xmlns:xlink="http://www.w3.org/1999/xlink" version="1.1"><path d="M0 92L21.5 93.5C43 95 86 98 128.8 96C171.7 94 214.3 87 257.2 86C300 85 343 90 385.8 89.3C428.7 88.7 471.3 82.3 514.2 88.5C557 94.7 600 113.3 642.8 121C685.7 128.7 728.3 125.3 771.2 122.7C814 120 857 118 900 119.7C943 121.3 986 126.7 1028.8 118.2C1071.7 109.7 1114.3 87.3 1157.2 85.3C1200 83.3 1243 101.7 1285.8 107C1328.7 112.3 1371.3 104.7 1414.2 106.3C1457 108 1500 119 1542.8 124C1585.7 129 1628.3 128 1671.2 118.5C1714 109 1757 91 1778.5 82L1800 73L1800 201L1778.5 201C1757 201 1714 201 1671.2 201C1628.3 201 1585.7 201 1542.8 201C1500 201 1457 201 1414.2 201C1371.3 201 1328.7 201 1285.8 201C1243 201 1200 201 1157.2 201C1114.3 201 1071.7 201 1028.8 201C986 201 943 201 900 201C857 201 814 201 771.2 201C728.3 201 685.7 201 642.8 201C600 201 557 201 514.2 201C471.3 201 428.7 201 385.8 201C343 201 300 201 257.2 201C214.3 201 171.7 201 128.8 201C86 201 43 201 21.5 201L0 201Z" fill="#0066ff"></path><path d="M0 123L21.5 122.5C43 122 86 121 128.8 119.2C171.7 117.3 214.3 114.7 257.2 113.3C300 112 343 112 385.8 115.7C428.7 119.3 471.3 126.7 514.2 131.3C557 136 600 138 642.8 136C685.7 134 728.3 128 771.2 130.8C814 133.7 857 145.3 900 145.3C943 145.3 986 133.7 1028.8 132.5C1071.7 131.3 1114.3 140.7 1157.2 139.8C1200 139 1243 128 1285.8 125.2C1328.7 122.3 1371.3 127.7 1414.2 128.5C1457 129.3 1500 125.7 1542.8 124.2C1585.7 122.7 1628.3 123.3 1671.2 125.5C1714 127.7 1757 131.3 1778.5 133.2L1800 135L1800 201L1778.5 201C1757 201 1714 201 1671.2 201C1628.3 201 1585.7 201 1542.8 201C1500 201 1457 201 1414.2 201C1371.3 201 1328.7 201 1285.8 201C1243 201 1200 201 1157.2 201C1114.3 201 1071.7 201 1028.8 201C986 201 943 201 900 201C857 201 814 201 771.2 201C728.3 201 685.7 201 642.8 201C600 201 557 201 514.2 201C471.3 201 428.7 201 385.8 201C343 201 300 201 257.2 201C214.3 201 171.7 201 128.8 201C86 201 43 201 21.5 201L0 201Z" fill="#a4a7f8"></path><path d="M0 144L21.5 143.7C43 143.3 86 142.7 128.8 148.5C171.7 154.3 214.3 166.7 257.2 168C300 169.3 343 159.7 385.8 153.2C428.7 146.7 471.3 143.3 514.2 146C557 148.7 600 157.3 642.8 158.7C685.7 160 728.3 154 771.2 152.8C814 151.7 857 155.3 900 153.2C943 151 986 143 1028.8 146.7C1071.7 150.3 1114.3 165.7 1157.2 173C1200 180.3 1243 179.7 1285.8 177.5C1328.7 175.3 1371.3 171.7 1414.2 171.3C1457 171 1500 174 1542.8 175.5C1585.7 177 1628.3 177 1671.2 176.5C1714 176 1757 175 1778.5 174.5L1800 174L1800 201L1778.5 201C1757 201 1714 201 1671.2 201C1628.3 201 1585.7 201 1542.8 201C1500 201 1457 201 1414.2 201C1371.3 201 1328.7 201 1285.8 201C1243 201 1200 201 1157.2 201C1114.3 201 1071.7 201 1028.8 201C986 201 943 201 900 201C857 201 814 201 771.2 201C728.3 201 685.7 201 642.8 201C600 201 557 201 514.2 201C471.3 201 428.7 201 385.8 201C343 201 300 201 257.2 201C214.3 201 171.7 201 128.8 201C86 201 43 201 21.5 201L0 201Z" fill="#eeeeee"></path></svg>